<?xml version="1.0" encoding="utf-8"?>
<!-- Generator: Adobe Illustrator 24.2.3, SVG Export Plug-In . SVG Version: 6.00 Build 0)  -->
<svg version="1.1" id="Layer_1" xmlns="http://www.w3.org/2000/svg" xmlns:xlink="http://www.w3.org/1999/xlink" x="0px" y="0px"
	 viewBox="0 0 85.34 24.73" style="enable-background:new 0 0 85.34 24.73;" xml:space="preserve">
<style type="text/css">
	.st0{fill-rule:evenodd;clip-rule:evenodd;fill:#13110C;}
	.st1{fill-rule:evenodd;clip-rule:evenodd;fill:#FE5A17;}
</style>
<g>
	<path class="st0" d="M10.88,24.47H0v-1.33c0.26,0,0.6-0.04,1.08-0.09c0.51-0.04,0.86-0.13,1.03-0.22c0.34-0.17,0.56-0.39,0.69-0.69
		c0.13-0.3,0.17-0.65,0.17-1.08V3.74c0-0.43-0.04-0.78-0.17-1.03c-0.13-0.3-0.34-0.56-0.69-0.73C1.89,1.85,1.55,1.72,1.12,1.59
		C0.69,1.51,0.3,1.42,0,1.38V0h10.88v1.38c-0.26,0-0.6,0.04-1.03,0.13C9.42,1.59,9.08,1.68,8.82,1.76c-0.39,0.17-0.6,0.39-0.73,0.69
		C7.96,2.8,7.91,3.14,7.91,3.53V20.9c0,0.39,0.04,0.73,0.17,1.03c0.13,0.3,0.39,0.52,0.73,0.73c0.17,0.09,0.52,0.22,0.95,0.3
		c0.43,0.09,0.82,0.17,1.12,0.17V24.47z"/>
	<g>
		<path class="st0" d="M27.66,1.03c-0.17,0.04-0.43,0.09-0.73,0.13c-0.3,0.09-0.6,0.26-0.86,0.52c-0.21,0.22-0.39,0.6-0.47,1.12
			c-0.13,0.56-0.17,1.33-0.17,2.41v12.56h-1.64L15.61,4.17v8.26c0,1.03,0.09,1.81,0.17,2.32c0.09,0.56,0.26,0.95,0.47,1.16
			c0.17,0.22,0.43,0.34,0.82,0.52c0.34,0.13,0.65,0.22,0.86,0.26v0.99H12.3v-0.99c0.26,0,0.52-0.08,0.82-0.17
			c0.34-0.08,0.6-0.26,0.77-0.43c0.26-0.26,0.43-0.6,0.52-1.08c0.09-0.52,0.13-1.33,0.13-2.45V4.22c0-0.39-0.04-0.82-0.13-1.16
			c-0.09-0.39-0.26-0.69-0.47-0.95c-0.22-0.3-0.43-0.52-0.73-0.69c-0.26-0.13-0.6-0.26-0.95-0.34V0.09h4.9l7.18,11.87V5.33
			c0-1.08-0.04-1.85-0.17-2.37c-0.09-0.52-0.26-0.9-0.47-1.16c-0.17-0.17-0.47-0.34-0.82-0.47c-0.34-0.17-0.6-0.26-0.82-0.3V0.09
			h5.59V1.03z"/>
		<path class="st1" d="M69.42,17.55v-1.16c0.26-0.09,0.47-0.22,0.69-0.39c0.51-0.34,0.9-0.86,1.2-1.51c0.3-0.64,0.56-1.46,0.69-2.36
			c0.13-0.9,0.22-1.98,0.22-3.14c0-1.16-0.13-2.24-0.3-3.23C71.74,4.82,71.49,4,71.1,3.31c-0.34-0.64-0.78-1.2-1.33-1.55
			c-0.13-0.09-0.22-0.17-0.34-0.22V0.13c0.43,0.09,0.86,0.17,1.33,0.34c0.86,0.26,1.68,0.73,2.45,1.42
			c0.82,0.69,1.46,1.63,1.94,2.79c0.51,1.16,0.73,2.62,0.73,4.3c0,1.51-0.22,2.8-0.65,3.87c-0.43,1.12-1.03,2.02-1.76,2.71
			c-0.73,0.73-1.55,1.25-2.5,1.59C70.46,17.33,69.94,17.46,69.42,17.55z M46.46,17.68H39.4v-0.99c0.21,0,0.47-0.04,0.77-0.13
			c0.3-0.04,0.47-0.09,0.6-0.17c0.17-0.13,0.34-0.3,0.43-0.52c0.13-0.21,0.17-0.47,0.17-0.82V1.94l-4.47,15.44h-1.16
			c-0.04-0.26-0.17-0.82-0.39-1.64c-0.22-0.82-0.43-1.46-0.56-1.94L31.49,1.72v10.71c0,1.03,0.04,1.81,0.17,2.32
			c0.09,0.56,0.26,0.95,0.47,1.16c0.17,0.17,0.43,0.34,0.82,0.52c0.43,0.17,0.69,0.26,0.86,0.26v0.99h-5.63v-0.99
			c0.17,0,0.39-0.08,0.73-0.17c0.39-0.08,0.65-0.21,0.86-0.43c0.26-0.26,0.43-0.64,0.52-1.16c0.09-0.56,0.13-1.33,0.13-2.37V3.83
			c0-0.52-0.04-0.95-0.13-1.29c-0.13-0.39-0.26-0.64-0.47-0.86c-0.26-0.26-0.47-0.43-0.73-0.47c-0.26-0.09-0.52-0.13-0.82-0.17V0.09
			h6.02l3.27,11.61l2.71-9.46c0.09-0.34,0.17-0.73,0.26-1.2c0.09-0.52,0.13-0.82,0.13-0.95h5.76v0.95c-0.17,0-0.39,0.04-0.6,0.09
			c-0.22,0.09-0.43,0.13-0.6,0.22c-0.26,0.13-0.43,0.26-0.52,0.52c-0.04,0.22-0.09,0.47-0.09,0.77v12.43c0,0.3,0.04,0.56,0.09,0.77
			c0.09,0.22,0.26,0.39,0.52,0.52c0.09,0.09,0.3,0.17,0.6,0.22c0.26,0.09,0.47,0.13,0.65,0.13V17.68L46.46,17.68z M69.42,0.13v1.42
			c-0.43-0.26-0.95-0.34-1.46-0.34c-0.22,0-0.47,0-0.73,0c-0.26,0.04-0.47,0.04-0.6,0.04v13.33c0,0.3,0,0.6,0.09,0.82
			c0.04,0.22,0.17,0.43,0.3,0.6c0.13,0.17,0.3,0.3,0.51,0.39c0.22,0.09,0.47,0.13,0.82,0.13c0.39,0,0.73-0.04,1.08-0.13v1.16
			c-0.47,0.09-0.95,0.13-1.42,0.13h-6.58v-0.99c0.21,0,0.43-0.04,0.73-0.08c0.3,0,0.52-0.09,0.6-0.13c0.22-0.13,0.39-0.3,0.47-0.52
			c0.09-0.22,0.13-0.43,0.13-0.73V2.75c0-0.3-0.04-0.56-0.13-0.78c-0.09-0.21-0.26-0.43-0.47-0.56c-0.26-0.13-0.47-0.22-0.73-0.3
			c-0.26-0.04-0.47-0.09-0.6-0.09V0.09h6.97C68.69,0.09,69.04,0.09,69.42,0.13L69.42,0.13z M59.4,4.56h-0.69
			c-0.17-0.69-0.52-1.33-0.95-2.02c-0.43-0.69-0.86-1.12-1.29-1.25C56.3,1.25,56.05,1.2,55.7,1.2c-0.34,0-0.6,0-0.82,0h-1.89V8h1.33
			c0.34,0,0.64-0.09,0.95-0.17c0.26-0.13,0.52-0.3,0.73-0.65c0.17-0.17,0.3-0.52,0.43-0.99c0.17-0.47,0.26-0.9,0.3-1.25h0.69v7.35
			h-0.69c-0.04-0.39-0.13-0.82-0.3-1.33c-0.13-0.52-0.3-0.86-0.43-1.07c-0.17-0.3-0.43-0.52-0.69-0.6c-0.3-0.13-0.6-0.17-0.99-0.17
			h-1.33v5.07c0,0.52,0.04,0.95,0.09,1.25c0.04,0.3,0.17,0.56,0.3,0.73c0.17,0.13,0.39,0.26,0.64,0.3c0.26,0.04,0.64,0.04,1.12,0.04
			c0.21,0,0.47,0,0.78,0c0.3,0,0.56-0.04,0.77-0.08c0.26-0.04,0.52-0.09,0.73-0.17c0.22-0.09,0.39-0.22,0.52-0.34
			c0.3-0.43,0.6-1.03,0.99-1.85c0.34-0.86,0.6-1.46,0.73-1.89h0.65l-0.21,5.51h-12.3v-0.99c0.17,0,0.39-0.04,0.69-0.08
			c0.3-0.04,0.52-0.13,0.64-0.17c0.22-0.13,0.39-0.3,0.47-0.52c0.09-0.17,0.13-0.47,0.13-0.77V2.75c0-0.3-0.04-0.56-0.13-0.78
			c-0.04-0.17-0.21-0.34-0.47-0.52c-0.17-0.09-0.39-0.17-0.69-0.26c-0.26-0.09-0.52-0.13-0.65-0.17V0.09H59.4V4.56z"/>
	</g>
	<path class="st0" d="M67.06,24.73v-0.34c0.22,0,0.43-0.09,0.6-0.22c0.17-0.13,0.3-0.3,0.43-0.56c0.08-0.21,0.17-0.52,0.26-0.82
		c0.04-0.3,0.09-0.64,0.09-1.03c0-0.39-0.04-0.73-0.13-1.08c-0.04-0.34-0.13-0.6-0.26-0.82c-0.09-0.26-0.26-0.43-0.43-0.56
		c-0.17-0.13-0.34-0.17-0.56-0.17v-0.39c0.3,0,0.56,0.09,0.82,0.22c0.26,0.17,0.47,0.34,0.69,0.6c0.17,0.26,0.34,0.6,0.43,0.95
		c0.13,0.39,0.17,0.82,0.17,1.25c0,0.43-0.04,0.86-0.17,1.25c-0.09,0.34-0.26,0.69-0.47,0.95c-0.17,0.26-0.39,0.43-0.64,0.56
		C67.62,24.69,67.31,24.73,67.06,24.73L67.06,24.73z M75.79,19.18c-0.09,0-0.17,0.04-0.26,0.08c-0.13,0.04-0.22,0.09-0.26,0.13
		c-0.09,0.04-0.13,0.17-0.17,0.39c-0.04,0.17-0.04,0.43-0.04,0.69v4.17H74.8L72.13,20v2.92c0,0.34,0,0.6,0.04,0.77
		c0.04,0.17,0.09,0.3,0.13,0.39c0.04,0.04,0.17,0.09,0.3,0.17c0.17,0.04,0.26,0.04,0.3,0.04v0.3H71.1v-0.3c0.04,0,0.13,0,0.3-0.04
		c0.13-0.04,0.22-0.09,0.22-0.13c0.08-0.09,0.13-0.22,0.17-0.34c0-0.17,0.04-0.43,0.04-0.82v-2.8c0-0.13-0.04-0.26-0.04-0.39
		c-0.04-0.09-0.09-0.22-0.17-0.26c-0.04-0.09-0.17-0.17-0.3-0.22c-0.13-0.08-0.22-0.13-0.3-0.13v-0.26h1.25l2.49,4.34v-2.71
		c0-0.34,0-0.6-0.04-0.77c-0.04-0.17-0.09-0.3-0.13-0.34c-0.09-0.09-0.17-0.13-0.3-0.17c-0.13-0.04-0.21-0.08-0.3-0.08v-0.26h1.81
		V19.18z M67.06,18.75v0.39c-0.26,0-0.47,0.04-0.65,0.21c-0.17,0.13-0.3,0.34-0.43,0.6c-0.08,0.21-0.17,0.47-0.21,0.82
		c-0.04,0.3-0.09,0.64-0.09,0.99c0,0.39,0.04,0.73,0.09,1.03c0.04,0.3,0.13,0.6,0.26,0.82c0.09,0.26,0.26,0.43,0.43,0.56
		c0.17,0.13,0.34,0.22,0.6,0.22v0.34c-0.3,0-0.6-0.04-0.86-0.22c-0.26-0.13-0.47-0.34-0.69-0.6c-0.17-0.26-0.3-0.6-0.43-0.95
		c-0.09-0.39-0.17-0.78-0.17-1.2c0-0.47,0.09-0.86,0.17-1.25c0.13-0.34,0.3-0.69,0.47-0.95c0.21-0.26,0.43-0.47,0.69-0.6
		C66.5,18.84,66.76,18.75,67.06,18.75L67.06,18.75z M51.36,22.62v-0.34H52l-0.65-2.2v-1.03c0.04-0.09,0.04-0.13,0.09-0.22h0.26
		l1.46,4.9c0,0.09,0.04,0.17,0.08,0.26c0.04,0.04,0.09,0.13,0.17,0.17c0.04,0.04,0.13,0.09,0.17,0.09c0.09,0.04,0.17,0.04,0.21,0.04
		v0.3h-1.85v-0.3c0.17,0,0.3,0,0.39-0.04c0.13-0.04,0.17-0.09,0.17-0.17c0,0,0-0.04,0-0.09c0-0.04,0-0.04,0-0.09l-0.39-1.29H51.36
		L51.36,22.62z M59.06,20.47h-0.17c-0.04-0.13-0.08-0.22-0.13-0.34c-0.04-0.17-0.09-0.26-0.17-0.39c-0.04-0.13-0.13-0.26-0.17-0.34
		c-0.09-0.09-0.17-0.13-0.21-0.13c-0.09-0.04-0.17-0.04-0.26-0.04c-0.08,0-0.17,0-0.26,0h-0.17v4.56c0,0.09,0,0.17,0.04,0.26
		c0,0.04,0.04,0.13,0.13,0.13c0.04,0.04,0.13,0.04,0.26,0.09c0.09,0.04,0.17,0.04,0.26,0.04v0.3h-2.07v-0.3c0.04,0,0.13,0,0.26,0
		c0.13-0.04,0.17-0.04,0.26-0.09c0.04,0,0.08-0.09,0.13-0.13c0.04-0.09,0.04-0.17,0.04-0.26v-4.6h-0.17c-0.09,0-0.13,0-0.26,0
		c-0.09,0-0.17,0-0.26,0.04c-0.08,0-0.13,0.04-0.21,0.13c-0.09,0.09-0.13,0.22-0.22,0.34c-0.04,0.13-0.09,0.26-0.13,0.39
		c-0.09,0.13-0.09,0.21-0.13,0.34h-0.22v-1.55h3.83V20.47L59.06,20.47z M62.88,24.6h-1.98v-0.3c0.04,0,0.13,0,0.26,0
		c0.09,0,0.17-0.04,0.21-0.04c0.04-0.04,0.13-0.09,0.13-0.17c0.04-0.04,0.04-0.13,0.04-0.22v-4.13c0-0.13,0-0.17,0-0.26
		c-0.04-0.04-0.09-0.13-0.17-0.17c-0.09,0-0.13-0.04-0.26-0.08c-0.09,0-0.17-0.04-0.21-0.04v-0.26h1.98v0.26
		c-0.04,0-0.13,0-0.22,0.04c-0.09,0-0.17,0.04-0.26,0.04c-0.04,0.04-0.13,0.09-0.13,0.17c-0.04,0.09-0.04,0.17-0.04,0.26v4.13
		c0,0.09,0,0.13,0.04,0.22c0.04,0.09,0.09,0.13,0.13,0.17c0.04,0,0.13,0.04,0.22,0.04c0.13,0.04,0.21,0.04,0.26,0.04V24.6z
		 M51.36,19.06v1.03l0,0l-0.64,2.2h0.64v0.34h-0.77c-0.04,0.22-0.09,0.34-0.13,0.52c-0.04,0.13-0.09,0.26-0.09,0.39
		c-0.04,0.09-0.04,0.17-0.09,0.26c0,0.09,0,0.13,0,0.17c0,0.13,0.04,0.22,0.22,0.26c0.13,0.04,0.26,0.09,0.43,0.09v0.3h-1.68v-0.3
		c0.04,0,0.13,0,0.22-0.04c0.09,0,0.13-0.04,0.21-0.09c0.04-0.09,0.13-0.13,0.17-0.22c0.04-0.09,0.09-0.22,0.13-0.34
		c0.22-0.69,0.47-1.5,0.73-2.41C50.97,20.43,51.18,19.7,51.36,19.06L51.36,19.06z M45.64,22.45v-0.82c0.17-0.04,0.3-0.17,0.43-0.3
		c0.17-0.26,0.3-0.56,0.3-0.99c0-0.34-0.09-0.6-0.26-0.82c-0.13-0.13-0.26-0.26-0.47-0.3v-0.3h0.09c0.17,0,0.34,0,0.52,0.04
		c0.17,0.04,0.34,0.13,0.47,0.26c0.13,0.08,0.22,0.26,0.3,0.43c0.09,0.17,0.09,0.34,0.09,0.6c0,0.22,0,0.43-0.04,0.6
		c-0.09,0.17-0.13,0.3-0.26,0.43c-0.09,0.13-0.22,0.21-0.34,0.3c-0.13,0.09-0.26,0.13-0.43,0.22c0.22,0.34,0.43,0.69,0.56,0.95
		c0.13,0.26,0.3,0.56,0.52,0.9c0.09,0.17,0.17,0.3,0.26,0.39c0.09,0.04,0.17,0.13,0.21,0.17c0.04,0.04,0.13,0.04,0.22,0.09
		c0.09,0,0.13,0,0.22,0v0.3H46.8c-0.26-0.52-0.52-0.99-0.73-1.38C45.94,22.97,45.81,22.71,45.64,22.45z M45.64,18.93v0.3
		c-0.04,0-0.09,0-0.17,0h-0.52v2.45h0.39c0.13,0,0.21,0,0.3-0.04v0.82c-0.09-0.13-0.17-0.3-0.26-0.43h-0.43v1.81
		c0,0.09,0,0.17,0.04,0.26c0,0.04,0.04,0.13,0.13,0.17c0.04,0,0.09,0,0.21,0.04c0.09,0,0.17,0,0.21,0v0.3H43.7v-0.3
		c0.04,0,0.13,0,0.21,0c0.08,0,0.13-0.04,0.17-0.04c0.09-0.04,0.13-0.09,0.13-0.17c0.04-0.09,0.04-0.13,0.04-0.26V19.7
		c0-0.09,0-0.17,0-0.26c-0.04-0.04-0.09-0.13-0.17-0.13c-0.05-0.04-0.09-0.04-0.17-0.08c-0.09,0-0.17-0.04-0.21-0.04v-0.26H45.64
		L45.64,18.93z M39.53,24.73v-0.34c0.21,0,0.43-0.09,0.6-0.22c0.17-0.13,0.3-0.3,0.43-0.56c0.13-0.21,0.22-0.52,0.26-0.82
		c0.04-0.3,0.08-0.64,0.08-1.03c0-0.39-0.04-0.73-0.08-1.08c-0.09-0.34-0.17-0.6-0.26-0.82c-0.13-0.26-0.26-0.43-0.43-0.56
		c-0.17-0.13-0.39-0.17-0.6-0.17v-0.39c0.3,0,0.56,0.09,0.82,0.22c0.26,0.17,0.47,0.34,0.65,0.6c0.17,0.26,0.34,0.6,0.43,0.95
		c0.13,0.39,0.17,0.82,0.17,1.25c0,0.43-0.04,0.86-0.17,1.25c-0.09,0.34-0.26,0.69-0.47,0.95c-0.13,0.26-0.34,0.43-0.6,0.56
		C40.09,24.69,39.83,24.73,39.53,24.73z M39.53,18.75v0.39c-0.26,0-0.47,0.04-0.65,0.21c-0.17,0.13-0.3,0.34-0.43,0.6
		c-0.09,0.21-0.17,0.47-0.21,0.82c-0.04,0.3-0.09,0.64-0.09,0.99c0,0.39,0.04,0.73,0.09,1.03c0.04,0.3,0.13,0.6,0.26,0.82
		c0.13,0.26,0.26,0.43,0.43,0.56c0.17,0.13,0.34,0.22,0.6,0.22v0.34c-0.3,0-0.6-0.04-0.86-0.22c-0.26-0.13-0.47-0.34-0.64-0.6
		c-0.21-0.26-0.34-0.6-0.47-0.95c-0.08-0.39-0.13-0.78-0.13-1.2c0-0.47,0.04-0.86,0.17-1.25c0.09-0.34,0.26-0.69,0.43-0.95
		c0.22-0.26,0.43-0.47,0.69-0.6C38.97,18.84,39.23,18.75,39.53,18.75L39.53,18.75z M33.98,22.11v-0.39
		c0.04-0.04,0.13-0.09,0.17-0.09c0.13-0.09,0.26-0.22,0.34-0.34c0.04-0.13,0.09-0.26,0.13-0.39c0-0.17,0.04-0.3,0.04-0.39
		c0-0.17-0.04-0.3-0.04-0.47c-0.04-0.17-0.09-0.3-0.17-0.43c-0.04-0.09-0.17-0.22-0.26-0.26c-0.09-0.04-0.13-0.09-0.22-0.09v-0.34
		h0.04c0.43,0,0.78,0.13,1.03,0.34c0.21,0.26,0.34,0.6,0.34,1.03c0,0.3-0.04,0.56-0.13,0.82c-0.09,0.21-0.21,0.39-0.34,0.56
		c-0.17,0.13-0.34,0.26-0.52,0.3C34.24,22.06,34.11,22.06,33.98,22.11z M33.98,18.93v0.34c-0.08-0.04-0.17-0.04-0.26-0.04h-0.43
		v2.54h0.34c0.13,0,0.21-0.04,0.34-0.04v0.39c-0.08,0-0.13,0-0.17,0h-0.52v1.72c0,0.09,0,0.17,0.04,0.26
		c0.04,0.04,0.09,0.13,0.13,0.17c0.04,0,0.13,0,0.22,0.04c0.09,0,0.17,0,0.26,0v0.3h-1.89v-0.3c0.04,0,0.13,0,0.22,0
		c0.09,0,0.17-0.04,0.21-0.04c0.04-0.04,0.09-0.09,0.13-0.17c0-0.09,0.04-0.13,0.04-0.26V19.7c0-0.09-0.04-0.17-0.04-0.22
		c0-0.09-0.09-0.17-0.13-0.17c-0.09-0.04-0.17-0.08-0.26-0.08c-0.09,0-0.13-0.04-0.17-0.04v-0.26H33.98L33.98,18.93z M28,22.45
		v-0.82c0.17-0.04,0.3-0.17,0.43-0.3c0.17-0.26,0.26-0.56,0.26-0.99c0-0.34-0.04-0.6-0.21-0.82c-0.13-0.13-0.26-0.26-0.47-0.3v-0.3
		h0.09c0.17,0,0.34,0,0.52,0.04c0.17,0.04,0.3,0.13,0.43,0.26c0.13,0.08,0.26,0.26,0.34,0.43c0.04,0.17,0.08,0.34,0.08,0.6
		c0,0.22,0,0.43-0.08,0.6c-0.04,0.17-0.13,0.3-0.22,0.43c-0.09,0.13-0.21,0.21-0.34,0.3c-0.13,0.09-0.26,0.13-0.43,0.22
		c0.21,0.34,0.39,0.69,0.56,0.95c0.13,0.26,0.3,0.56,0.51,0.9c0.09,0.17,0.17,0.3,0.26,0.39c0.09,0.04,0.13,0.13,0.22,0.17
		c0.04,0.04,0.13,0.04,0.21,0.09c0.09,0,0.13,0,0.17,0v0.3h-1.16c-0.26-0.52-0.52-0.99-0.73-1.38C28.3,22.97,28.17,22.71,28,22.45z
		 M28,18.93v0.3c-0.04,0-0.13,0-0.17,0h-0.52v2.45h0.39c0.13,0,0.22,0,0.3-0.04v0.82c-0.09-0.13-0.17-0.3-0.26-0.43h-0.43v1.81
		c0,0.09,0,0.17,0,0.26c0.04,0.04,0.09,0.13,0.17,0.17c0.04,0,0.09,0,0.17,0.04c0.13,0,0.17,0,0.26,0v0.3h-1.89v-0.3
		c0.09,0,0.13,0,0.26,0c0.09,0,0.13-0.04,0.17-0.04c0.09-0.04,0.13-0.09,0.13-0.17c0.04-0.09,0.04-0.13,0.04-0.26V19.7
		c0-0.09,0-0.17-0.04-0.26c0-0.04-0.04-0.13-0.13-0.13c-0.04-0.04-0.13-0.04-0.22-0.08c-0.09,0-0.13-0.04-0.21-0.04v-0.26H28
		L28,18.93z M21.85,24.73v-0.34c0.22,0,0.39-0.09,0.6-0.22c0.17-0.13,0.3-0.3,0.43-0.56c0.09-0.21,0.17-0.52,0.26-0.82
		c0.04-0.3,0.04-0.64,0.04-1.03c0-0.39,0-0.73-0.09-1.08c-0.04-0.34-0.13-0.6-0.26-0.82c-0.09-0.26-0.26-0.43-0.43-0.56
		c-0.17-0.13-0.34-0.17-0.56-0.17v-0.39c0.26,0,0.56,0.09,0.82,0.22c0.26,0.17,0.47,0.34,0.69,0.6c0.17,0.26,0.34,0.6,0.43,0.95
		c0.13,0.39,0.17,0.82,0.17,1.25c0,0.43-0.04,0.86-0.17,1.25c-0.13,0.34-0.26,0.69-0.47,0.95c-0.17,0.26-0.39,0.43-0.64,0.56
		C22.41,24.69,22.11,24.73,21.85,24.73z M16.09,24.73c-0.26,0-0.52-0.04-0.73-0.17c-0.26-0.17-0.47-0.34-0.64-0.6
		c-0.22-0.26-0.34-0.56-0.47-0.9c-0.09-0.39-0.13-0.77-0.13-1.25c0-0.43,0.04-0.86,0.13-1.25c0.13-0.34,0.26-0.69,0.47-0.95
		c0.17-0.26,0.39-0.47,0.64-0.6c0.26-0.17,0.56-0.22,0.82-0.22c0.22,0,0.43,0,0.6,0.09c0.17,0.09,0.34,0.17,0.51,0.3l0.13-0.26h0.26
		v2.02h-0.26c0-0.22-0.09-0.43-0.13-0.65c-0.09-0.26-0.17-0.43-0.26-0.6c-0.09-0.17-0.21-0.3-0.34-0.43
		c-0.13-0.08-0.3-0.13-0.47-0.13c-0.17,0-0.39,0.04-0.56,0.17c-0.17,0.09-0.3,0.26-0.43,0.47c-0.13,0.26-0.21,0.52-0.3,0.86
		c-0.04,0.34-0.09,0.69-0.09,1.12c0,0.34,0.04,0.69,0.09,0.99c0.09,0.3,0.17,0.56,0.3,0.82c0.17,0.22,0.3,0.39,0.47,0.52
		c0.21,0.13,0.39,0.22,0.64,0.22c0.13,0,0.3-0.04,0.43-0.13c0.17-0.04,0.26-0.13,0.39-0.26c0.09-0.13,0.17-0.26,0.26-0.39
		c0.09-0.17,0.13-0.34,0.22-0.52l0.22,0.17c-0.17,0.56-0.43,0.95-0.69,1.2C16.86,24.6,16.52,24.73,16.09,24.73L16.09,24.73z
		 M21.85,18.75v0.39c-0.26,0-0.47,0.04-0.64,0.21c-0.17,0.13-0.3,0.34-0.43,0.6c-0.09,0.21-0.17,0.47-0.22,0.82
		c-0.09,0.3-0.09,0.64-0.09,0.99c0,0.39,0.04,0.73,0.09,1.03c0.04,0.3,0.13,0.6,0.26,0.82c0.09,0.26,0.26,0.43,0.43,0.56
		c0.13,0.13,0.34,0.22,0.6,0.22v0.34c-0.3,0-0.6-0.04-0.86-0.22c-0.26-0.13-0.47-0.34-0.69-0.6c-0.17-0.26-0.3-0.6-0.43-0.95
		c-0.09-0.39-0.17-0.78-0.17-1.2c0-0.47,0.09-0.86,0.17-1.25c0.13-0.34,0.3-0.69,0.47-0.95c0.21-0.26,0.43-0.47,0.69-0.6
		C21.29,18.84,21.55,18.75,21.85,18.75z"/>
	<rect x="82.8" y="0.04" class="st0" width="2.54" height="2.58"/>
	<rect x="82.8" y="4.77" class="st0" width="2.49" height="2.58"/>
	<rect x="78.15" y="0.04" class="st1" width="2.54" height="2.62"/>
	<rect x="78.15" y="4.77" class="st1" width="2.5" height="2.58"/>
</g>
</svg>
