<?xml version="1.0" encoding="utf-8"?>
<!-- Generator: Adobe Illustrator 24.2.3, SVG Export Plug-In . SVG Version: 6.00 Build 0)  -->
<svg version="1.1" id="Layer_1" xmlns="http://www.w3.org/2000/svg" xmlns:xlink="http://www.w3.org/1999/xlink" x="0px" y="0px"
	 viewBox="0 0 49.43 86.61" style="enable-background:new 0 0 49.43 86.61;" xml:space="preserve">
<style type="text/css">
	.st0{fill:#FFFFFF;stroke:#000000;stroke-width:1.3119;stroke-miterlimit:10;}
	.st1{fill:#0B0F1D;}
	.st2{opacity:0.15;fill:none;stroke:#FFFFFF;stroke-width:4.1625;stroke-miterlimit:10;}
	.st3{opacity:0.2;fill:none;stroke:#FFFFFF;stroke-width:4.1625;stroke-miterlimit:10;}
	.st4{opacity:0.43;fill:none;stroke:#FFFFFF;stroke-width:4.1625;stroke-miterlimit:10;}
	.st5{opacity:0.63;fill:url(#SVGID_1_);}
	.st6{fill-rule:evenodd;clip-rule:evenodd;fill:#FE5A17;}
	.st7{fill-rule:evenodd;clip-rule:evenodd;fill:#FFFFFE;}
	.st8{fill:none;stroke:#4F4E4E;stroke-width:0.4009;stroke-miterlimit:10;}
	.st9{fill-rule:evenodd;clip-rule:evenodd;fill:#13110C;}
	.st10{fill:#E84E0F;}
	.st11{fill-rule:evenodd;clip-rule:evenodd;fill:#FFFEFE;stroke:#616475;stroke-width:1.0473;stroke-miterlimit:10;}
	.st12{fill:#FFFFFF;}
	.st13{fill:#616475;}
	.st14{fill:#F07E1F;}
	.st15{fill:none;stroke:#F07E1F;stroke-width:5.0228;stroke-miterlimit:10;}
	.st16{fill-rule:evenodd;clip-rule:evenodd;fill:#F07E1F;}
	.st17{fill:#FE5A17;}
	.st18{fill:#F49619;}
	.st19{fill:#EF7B19;}
	.st20{fill:none;stroke:#4F4E4E;stroke-width:0.9169;stroke-miterlimit:10;}
	.st21{opacity:0.44;fill:none;stroke:#FFFFFF;stroke-width:9.2109;stroke-miterlimit:10;}
	.st22{fill:#091018;}
	.st23{fill:url(#SVGID_2_);}
	.st24{fill:url(#SVGID_3_);}
	.st25{fill:none;stroke:#FFFFFF;stroke-width:2.7724;stroke-miterlimit:10;}
	.st26{fill:url(#SVGID_4_);}
	.st27{fill:url(#SVGID_5_);}
	.st28{fill:#FACCC1;}
	.st29{fill:#F7B9AD;}
	.st30{fill:#72B4E4;}
</style>
<path class="st14" d="M49.43,6.06v74.48c-0.01,3.34-2.72,6.05-6.06,6.06H6.06C2.72,86.6,0.01,83.89,0,80.54V6.06
	C0.01,2.72,2.72,0.01,6.06,0h37.31C46.71,0.01,49.42,2.72,49.43,6.06z M43.37,16.04H6.06V71.5h37.31V16.04z M14.63,8.37
	c0,1.67,1.36,3.03,3.03,3.03h14.13c1.67,0,3.03-1.36,3.03-3.03s-1.36-3.03-3.03-3.03H17.66C15.98,5.34,14.63,6.69,14.63,8.37
	L14.63,8.37z M27.74,79.05c0-1.67-1.35-3.02-3.02-3.02c-1.67,0-3.02,1.35-3.02,3.02c0,1.67,1.35,3.02,3.01,3.02
	C26.38,82.08,27.74,80.73,27.74,79.05C27.74,79.06,27.74,79.06,27.74,79.05z"/>
</svg>
