<?xml version="1.0" encoding="utf-8"?>
<!-- Generator: Adobe Illustrator 24.2.3, SVG Export Plug-In . SVG Version: 6.00 Build 0)  -->
<svg version="1.1" id="Layer_1" xmlns="http://www.w3.org/2000/svg" xmlns:xlink="http://www.w3.org/1999/xlink" x="0px" y="0px"
	 viewBox="0 0 52.09 46.32" style="enable-background:new 0 0 52.09 46.32;" xml:space="preserve">
<style type="text/css">
	.st0{fill:#FFFFFF;stroke:#000000;stroke-width:1.3119;stroke-miterlimit:10;}
	.st1{fill:#0B0F1D;}
	.st2{opacity:0.15;fill:none;stroke:#FFFFFF;stroke-width:4.1625;stroke-miterlimit:10;}
	.st3{opacity:0.2;fill:none;stroke:#FFFFFF;stroke-width:4.1625;stroke-miterlimit:10;}
	.st4{opacity:0.43;fill:none;stroke:#FFFFFF;stroke-width:4.1625;stroke-miterlimit:10;}
	.st5{opacity:0.63;fill:url(#SVGID_1_);}
	.st6{fill-rule:evenodd;clip-rule:evenodd;fill:#FE5A17;}
	.st7{fill-rule:evenodd;clip-rule:evenodd;fill:#FFFFFE;}
	.st8{fill:none;stroke:#4F4E4E;stroke-width:0.4009;stroke-miterlimit:10;}
	.st9{fill-rule:evenodd;clip-rule:evenodd;fill:#13110C;}
	.st10{fill:#E84E0F;}
	.st11{fill:#FFFFFF;}
	.st12{fill:#F07E1F;}
	.st13{fill:none;stroke:#F07E1F;stroke-width:2.4589;stroke-miterlimit:10;}
	.st14{fill-rule:evenodd;clip-rule:evenodd;fill:#F07E1F;}
	.st15{fill:#FE5A17;}
	.st16{fill:#F49619;}
	.st17{fill:#EF7B19;}
	.st18{fill:none;stroke:#4F4E4E;stroke-width:0.9169;stroke-miterlimit:10;}
	.st19{opacity:0.44;fill:none;stroke:#FFFFFF;stroke-width:9.2109;stroke-miterlimit:10;}
	.st20{fill:#091018;}
	.st21{fill:url(#SVGID_2_);}
	.st22{fill:url(#SVGID_3_);}
	.st23{fill:none;stroke:#FFFFFF;stroke-width:2.7724;stroke-miterlimit:10;}
	.st24{fill:url(#SVGID_4_);}
	.st25{fill:url(#SVGID_5_);}
</style>
<path class="st10" d="M49.31,46.32H2.78C1.24,46.32,0,45.07,0,43.54V2.78C0,1.24,1.24,0,2.78,0h46.54c1.53,0,2.78,1.24,2.78,2.78
	v40.76C52.09,45.07,50.85,46.32,49.31,46.32z"/>
<path class="st11" d="M23.05,8.25c-6.3,0-11.42,5.12-11.42,11.42s5.12,11.42,11.42,11.42c2.49,0,4.8-0.8,6.67-2.16l8.83,8.81
	l1.89-1.89l-8.73-8.75c1.72-2,2.75-4.59,2.75-7.43C34.47,13.37,29.35,8.25,23.05,8.25z M23.05,9.6c5.57,0,10.07,4.5,10.07,10.07
	s-4.5,10.07-10.07,10.07s-10.07-4.5-10.07-10.07S17.48,9.6,23.05,9.6z"/>
</svg>
