<?xml version="1.0" encoding="utf-8"?>
<!-- Generator: Adobe Illustrator 24.2.3, SVG Export Plug-In . SVG Version: 6.00 Build 0)  -->
<svg version="1.1" id="Layer_1" xmlns="http://www.w3.org/2000/svg" xmlns:xlink="http://www.w3.org/1999/xlink" x="0px" y="0px"
	 viewBox="0 0 67.65 88.23" style="enable-background:new 0 0 67.65 88.23;" xml:space="preserve">
<style type="text/css">
	.st0{fill:#FFFFFF;stroke:#000000;stroke-width:1.3119;stroke-miterlimit:10;}
	.st1{fill:#0B0F1D;}
	.st2{opacity:0.15;fill:none;stroke:#FFFFFF;stroke-width:4.1625;stroke-miterlimit:10;}
	.st3{opacity:0.2;fill:none;stroke:#FFFFFF;stroke-width:4.1625;stroke-miterlimit:10;}
	.st4{opacity:0.43;fill:none;stroke:#FFFFFF;stroke-width:4.1625;stroke-miterlimit:10;}
	.st5{opacity:0.63;fill:url(#SVGID_1_);}
	.st6{fill-rule:evenodd;clip-rule:evenodd;fill:#FE5A17;}
	.st7{fill-rule:evenodd;clip-rule:evenodd;fill:#FFFFFE;}
	.st8{fill:none;stroke:#4F4E4E;stroke-width:0.4009;stroke-miterlimit:10;}
	.st9{fill-rule:evenodd;clip-rule:evenodd;fill:#13110C;}
	.st10{fill:#E84E0F;}
	.st11{fill-rule:evenodd;clip-rule:evenodd;fill:#FFFEFE;stroke:#616475;stroke-width:1.0473;stroke-miterlimit:10;}
	.st12{fill:#FFFFFF;}
	.st13{fill:#616475;}
	.st14{fill:#F07E1F;}
	.st15{fill:none;stroke:#F07E1F;stroke-width:5.0228;stroke-miterlimit:10;}
	.st16{fill-rule:evenodd;clip-rule:evenodd;fill:#F07E1F;}
	.st17{fill:#FE5A17;}
	.st18{fill:#F49619;}
	.st19{fill:#EF7B19;}
	.st20{fill:none;stroke:#4F4E4E;stroke-width:0.9169;stroke-miterlimit:10;}
	.st21{opacity:0.44;fill:none;stroke:#FFFFFF;stroke-width:9.2109;stroke-miterlimit:10;}
	.st22{fill:#091018;}
	.st23{fill:url(#SVGID_2_);}
	.st24{fill:url(#SVGID_3_);}
	.st25{fill:none;stroke:#FFFFFF;stroke-width:2.7724;stroke-miterlimit:10;}
	.st26{fill:url(#SVGID_4_);}
	.st27{fill:url(#SVGID_5_);}
	.st28{fill:#FACCC1;}
	.st29{fill:#F7B9AD;}
	.st30{fill:#72B4E4;}
</style>
<g>
	<path class="st14" d="M6.05,3.74C-0.01,7.67-1.2,19.96,1.08,29.98c1.78,7.8,5.57,18.26,11.96,28.12
		c6.01,9.27,14.4,17.58,20.79,22.39c8.21,6.17,19.92,10.1,25.98,6.17c3.07-1.99,7.62-7.42,7.83-8.39c0,0-2.67-4.12-3.26-5.02
		l-8.96-13.81c-0.67-1.03-4.84-0.09-6.96,1.11c-2.86,1.62-5.49,5.97-5.49,5.97c-1.96,1.13-3.6,0-7.04-1.58
		c-4.22-1.94-8.96-7.97-12.73-13.43c-3.45-5.67-7.02-12.46-7.07-17.1c-0.04-3.78-0.4-5.74,1.43-7.07c0,0,5.04-0.63,7.69-2.58
		c1.96-1.45,4.52-4.87,3.85-5.9L20.16,5.04c-0.59-0.9-3.26-5.02-3.26-5.02C15.93-0.19,9.11,1.75,6.05,3.74z"/>
</g>
</svg>
